ply
format ascii 1.0
comment Created by CloudCompare v2.11.1 (Anoia)
comment Created 09/09/22 20:41
obj_info Generated by CloudCompare!
element vertex 298
property float x
property float y
property float z
property uchar red
property uchar green
property uchar blue
end_header
0.845579 0.134585 -0.2994 41 33 30 
0.844815 0.139287 -0.300737 40 34 29 
0.844662 0.137654 -0.300683 42 34 31 
0.84411 0.134351 -0.300486 44 36 33 
0.843822 0.132699 -0.300384 45 37 34 
0.843088 0.129375 -0.300123 51 46 42 
0.842988 0.127755 -0.300087 41 36 32 
0.843554 0.14229 -0.301894 43 36 31 
0.842885 0.140573 -0.301655 42 34 30 
0.842469 0.13409 -0.301506 43 35 32 
0.842264 0.132454 -0.301432 44 36 33 
0.841832 0.130784 -0.301278 47 40 37 
0.841289 0.127498 -0.301083 45 38 35 
0.84113 0.125873 -0.301027 55 47 44 
0.840565 0.124189 -0.300824 49 42 39 
0.83877 0.12552 -0.301778 45 37 34 
0.838461 0.120686 -0.301667 39 31 28 
0.838248 0.11906 -0.30159 41 33 30 
0.841534 0.151558 -0.304374 49 41 38 
0.840426 0.149759 -0.303973 46 38 35 
0.839868 0.146463 -0.303772 44 36 33 
0.839559 0.141616 -0.30366 42 34 31 
0.839148 0.138352 -0.303511 43 35 32 
0.839222 0.13517 -0.303538 45 37 34 
0.838616 0.131881 -0.303319 44 36 33 
0.838356 0.130244 -0.303225 47 39 36 
0.836846 0.125232 -0.302679 45 37 34 
0.836541 0.123594 -0.302568 45 37 34 
0.840903 0.157846 -0.305746 43 35 32 
0.840478 0.156167 -0.305592 47 39 36 
0.840128 0.152904 -0.305465 46 39 34 
0.838818 0.149473 -0.304988 43 35 32 
0.838057 0.136578 -0.304712 45 37 34 
0.837881 0.134954 -0.304647 46 38 35 
0.836736 0.131585 -0.304231 47 39 36 
0.836725 0.129991 -0.304227 46 38 35 
0.836206 0.126728 -0.304039 54 46 43 
0.835175 0.120213 -0.303664 41 33 30 
0.835324 0.115466 -0.303718 42 34 31 
0.834883 0.113816 -0.303558 42 34 32 
0.840782 0.161024 -0.307303 38 30 28 
0.835093 0.131327 -0.305223 49 41 38 
0.834712 0.129678 -0.305084 47 39 36 
0.833501 0.127904 -0.304641 58 50 47 
0.833307 0.126288 -0.30457 61 53 50 
0.834002 0.121632 -0.304825 47 39 36 
0.833746 0.118421 -0.304731 48 40 37 
0.832896 0.113545 -0.30442 43 35 32 
0.838888 0.160661 -0.308207 36 29 26 
0.838166 0.157332 -0.307941 43 35 32 
0.837813 0.155672 -0.307812 44 36 33 
0.837549 0.154028 -0.307715 44 36 33 
0.836814 0.150708 -0.307445 48 39 36 
0.836146 0.147405 -0.307199 50 41 39 
0.835792 0.144162 -0.307069 44 36 33 
0.835364 0.140908 -0.306912 44 36 33 
0.835405 0.136145 -0.306927 44 37 31 
0.833812 0.131125 -0.306342 50 42 39 
0.83108 0.113297 -0.305338 40 32 30 
0.830584 0.111649 -0.305156 39 31 29 
0.837323 0.160361 -0.309225 41 32 30 
0.836558 0.15703 -0.308943 44 36 33 
0.836167 0.155366 -0.308798 44 36 32 
0.83581 0.153709 -0.308666 46 38 35 
0.834594 0.150308 -0.308217 34 26 23 
0.834234 0.147068 -0.308085 41 33 30 
0.833924 0.143839 -0.30797 40 32 29 
0.831628 0.140278 -0.307122 77 68 66 
0.831992 0.138756 -0.307256 88 79 77 
0.832357 0.137233 -0.307391 73 64 62 
0.831753 0.130801 -0.307168 51 43 41 
0.83087 0.1275 -0.306842 47 39 37 
0.830902 0.125924 -0.306854 39 31 28 
0.830036 0.119474 -0.306534 53 45 41 
0.83097 0.116445 -0.306879 41 35 31 
0.83387 0.153352 -0.309537 38 30 29 
0.8324 0.149913 -0.308991 37 29 27 
0.832764 0.146809 -0.309126 38 30 27 
0.831192 0.143368 -0.308543 61 54 47 
0.829174 0.138286 -0.307794 84 76 68 
0.828154 0.131812 -0.307415 61 55 47 
0.828334 0.127111 -0.307482 56 48 40 
0.828245 0.125521 -0.307449 46 39 31 
0.827924 0.122321 -0.30733 51 46 37 
0.827921 0.120745 -0.307329 69 66 55 
0.827017 0.119039 -0.306993 60 58 44 
0.826077 0.112615 -0.306644 48 45 36 
0.825286 0.107796 -0.306351 31 28 24 
0.834736 0.163043 -0.311447 46 38 35 
0.834407 0.161391 -0.311325 45 37 35 
0.833745 0.158089 -0.311077 40 32 29 
0.833573 0.15647 -0.311013 42 34 31 
0.828437 0.14447 -0.309097 66 58 54 
0.828227 0.134976 -0.309018 83 79 59 
0.827235 0.131665 -0.308649 67 64 55 
0.826941 0.130045 -0.308539 59 55 48 
0.826699 0.12686 -0.308449 44 41 31 
0.826766 0.123723 -0.308473 47 42 33 
0.826717 0.120569 -0.308455 49 44 34 
0.81956 0.114846 -0.305785 89 124 71 
0.820875 0.113468 -0.306276 107 150 92 
0.824121 0.109212 -0.307487 34 37 28 
0.820509 0.10561 -0.306139 86 86 75 
0.831964 0.162501 -0.311996 53 45 42 
0.831917 0.157742 -0.311979 42 34 31 
0.831576 0.154513 -0.311851 44 36 33 
0.83135 0.152888 -0.311766 43 35 33 
0.830586 0.151167 -0.31148 44 36 33 
0.829393 0.147793 -0.311032 45 38 34 
0.828836 0.146116 -0.310823 47 41 37 
0.827011 0.142647 -0.310139 44 42 36 
0.823436 0.120091 -0.308798 50 51 36 
0.823186 0.116921 -0.308704 29 42 18 
0.819962 0.113342 -0.307495 122 172 102 
0.819506 0.1086 -0.307324 44 42 34 
0.819346 0.10546 -0.307264 49 48 38 
0.818181 0.103753 -0.306828 56 54 46 
0.829597 0.165197 -0.312687 85 80 76 
0.8302 0.160577 -0.312915 52 48 43 
0.828876 0.157166 -0.312416 55 48 45 
0.82846 0.152357 -0.312259 43 34 31 
0.827031 0.147372 -0.31172 43 39 34 
0.826298 0.145669 -0.311444 46 41 37 
0.825699 0.140849 -0.311218 131 134 128 
0.825529 0.139249 -0.311154 49 53 59 
0.82467 0.135965 -0.31083 239 247 238 
0.824544 0.134375 -0.310783 100 103 88 
0.823746 0.13111 -0.310482 62 57 50 
0.822969 0.12942 -0.310189 61 57 48 
0.822541 0.127787 -0.310028 62 57 48 
0.821869 0.124555 -0.309775 49 46 37 
0.816105 0.117469 -0.307602 68 97 46 
0.815664 0.108091 -0.307436 51 53 36 
0.825884 0.147168 -0.31286 41 36 33 
0.824829 0.14541 -0.31246 40 36 32 
0.824328 0.143753 -0.31227 44 39 35 
0.824231 0.142168 -0.312234 41 37 33 
0.823156 0.138849 -0.311826 42 42 43 
0.822618 0.135627 -0.311622 213 214 208 
0.821525 0.133883 -0.311208 40 35 31 
0.820928 0.132224 -0.310982 56 45 38 
0.820711 0.129065 -0.3109 48 45 34 
0.820002 0.125832 -0.310631 45 45 34 
0.818694 0.122515 -0.310136 31 32 18 
0.816488 0.119078 -0.3093 151 184 115 
0.816401 0.11285 -0.309267 131 159 94 
0.813767 0.110937 -0.30827 108 137 75 
0.827053 0.166264 -0.314876 73 69 58 
0.827288 0.163162 -0.314966 40 33 27 
0.826032 0.158199 -0.314488 49 41 38 
0.824446 0.154757 -0.313884 46 42 37 
0.82498 0.153287 -0.314087 44 39 36 
0.821324 0.147918 -0.312695 70 65 61 
0.820066 0.138328 -0.312216 49 44 42 
0.819032 0.135036 -0.311823 73 68 59 
0.81925 0.131954 -0.311906 52 46 39 
0.818069 0.130206 -0.311456 50 44 34 
0.817299 0.123862 -0.311163 40 41 25 
0.816528 0.122191 -0.310869 34 42 20 
0.814405 0.118774 -0.310061 73 87 48 
0.813136 0.117041 -0.309578 71 89 34 
0.812459 0.115397 -0.30932 86 104 49 
0.813227 0.106221 -0.309613 46 45 26 
0.824443 0.167308 -0.315452 47 41 36 
0.820506 0.161825 -0.313946 87 90 70 
0.821378 0.157307 -0.314279 105 101 91 
0.822378 0.152803 -0.314662 46 41 37 
0.822289 0.149657 -0.314628 45 40 35 
0.81942 0.142897 -0.31353 45 41 37 
0.818618 0.139641 -0.313223 49 46 43 
0.817686 0.13637 -0.312867 53 50 45 
0.816495 0.134618 -0.312411 77 73 69 
0.812767 0.118535 -0.310984 30 31 20 
0.810753 0.112069 -0.310214 36 39 21 
0.810847 0.110539 -0.31025 27 32 15 
0.822017 0.16838 -0.316088 45 38 35 
0.821587 0.166729 -0.315923 44 41 35 
0.821135 0.163512 -0.315749 114 129 97 
0.820177 0.152395 -0.31538 45 45 38 
0.817927 0.147307 -0.314515 111 114 108 
0.817865 0.142626 -0.314491 41 38 32 
0.817413 0.139436 -0.314317 47 44 38 
0.815336 0.12822 -0.313519 49 46 37 
0.81327 0.123251 -0.312725 39 38 26 
0.813219 0.121696 -0.312705 39 38 27 
0.810722 0.118237 -0.311745 24 30 16 
0.817664 0.159708 -0.31597 133 165 99 
0.818407 0.153623 -0.316258 39 44 30 
0.81531 0.14218 -0.315061 33 33 29 
0.816381 0.137706 -0.315474 42 36 33 
0.81395 0.132649 -0.314535 69 64 58 
0.813875 0.129539 -0.314506 51 47 39 
0.81362 0.126401 -0.314407 45 41 32 
0.811846 0.121491 -0.313722 49 49 36 
0.811074 0.119831 -0.313424 39 42 27 
0.808163 0.113249 -0.312299 33 33 16 
0.807382 0.111603 -0.311997 42 42 24 
0.808273 0.110188 -0.312341 42 45 27 
0.819279 0.16782 -0.318153 44 42 32 
0.817923 0.164429 -0.317627 51 53 38 
0.815896 0.151599 -0.31684 94 130 85 
0.812582 0.149437 -0.315553 64 78 54 
0.815633 0.146894 -0.316738 37 38 31 
0.810472 0.121285 -0.314734 48 46 35 
0.809632 0.119618 -0.314407 42 39 28 
0.808951 0.117978 -0.314143 46 43 32 
0.808374 0.114817 -0.313919 33 30 18 
0.819029 0.170886 -0.319615 36 30 25 
0.81771 0.167498 -0.3191 48 45 35 
0.816409 0.165678 -0.318593 39 37 28 
0.813397 0.160423 -0.317417 84 95 59 
0.813147 0.158826 -0.31732 139 160 104 
0.811614 0.155437 -0.316721 81 109 60 
0.81084 0.152203 -0.31642 103 153 90 
0.811873 0.146216 -0.316823 46 45 40 
0.812002 0.141604 -0.316873 44 40 35 
0.811721 0.138465 -0.316763 47 45 40 
0.810994 0.133711 -0.31648 50 48 41 
0.810906 0.129066 -0.316445 49 45 38 
0.810118 0.127399 -0.316138 53 49 40 
0.814758 0.165343 -0.319499 43 43 30 
0.811859 0.16012 -0.318362 88 101 65 
0.810496 0.158308 -0.317828 53 66 31 
0.80984 0.155098 -0.317571 72 98 48 
0.809233 0.151901 -0.317333 104 137 89 
0.80944 0.1504 -0.317414 82 98 64 
0.809687 0.145823 -0.31751 43 44 32 
0.810006 0.139714 -0.317636 45 45 39 
0.808852 0.136436 -0.317183 57 56 51 
0.808721 0.133336 -0.317132 61 60 53 
0.808485 0.13022 -0.317039 50 45 39 
0.80754 0.125457 -0.316669 57 54 43 
0.806664 0.120715 -0.316325 37 33 27 
0.806505 0.119156 -0.316263 44 40 30 
0.805488 0.11594 -0.315864 43 39 29 
0.815082 0.168511 -0.321177 49 46 39 
0.807981 0.153204 -0.318379 63 78 45 
0.807493 0.136207 -0.318187 65 62 56 
0.806981 0.129977 -0.317985 58 53 48 
0.805542 0.125146 -0.317418 47 45 34 
0.805271 0.118974 -0.317311 30 31 21 
0.804349 0.117307 -0.316948 40 42 30 
0.803837 0.114173 -0.316746 44 44 35 
0.813167 0.16502 -0.32197 32 38 22 
0.809118 0.162659 -0.320367 73 92 54 
0.807682 0.159296 -0.319799 90 134 62 
0.806118 0.152851 -0.319179 20 26 12 
0.805813 0.151259 -0.319059 39 47 27 
0.807099 0.149965 -0.319568 44 50 32 
0.807097 0.14382 -0.319567 41 39 32 
0.806809 0.139162 -0.319453 49 45 39 
0.806608 0.137593 -0.319373 49 46 41 
0.809622 0.165842 -0.322108 68 67 55 
0.80791 0.162416 -0.321426 106 137 91 
0.807762 0.160849 -0.321368 100 148 90 
0.806483 0.157524 -0.320859 55 78 31 
0.806002 0.149761 -0.320667 36 37 23 
0.805426 0.145055 -0.320438 42 39 32 
0.805449 0.140461 -0.320447 46 46 37 
0.804304 0.1372 -0.319992 94 93 87 
0.803375 0.133983 -0.319622 44 42 37 
0.802683 0.129285 -0.319347 52 47 43 
0.801931 0.126112 -0.319047 61 58 54 
0.802072 0.121554 -0.319104 46 44 39 
0.802967 0.155309 -0.320988 46 55 28 
0.80365 0.150853 -0.321261 56 57 36 
0.803945 0.144789 -0.321379 51 50 44 
0.802916 0.143075 -0.320968 61 60 54 
0.802547 0.1369 -0.32082 197 200 192 
0.802468 0.135359 -0.320789 91 94 86 
0.801892 0.133736 -0.320558 32 32 28 
0.800982 0.125962 -0.320195 52 47 43 
0.799589 0.1227 -0.319638 44 41 34 
0.804291 0.160158 -0.323048 70 84 56 
0.800763 0.154883 -0.321631 43 55 30 
0.803477 0.149292 -0.322721 29 33 20 
0.801422 0.159586 -0.323421 48 46 37 
0.800339 0.150232 -0.322984 60 61 51 
0.800309 0.14718 -0.322972 48 47 38 
0.800044 0.142563 -0.322865 52 49 44 
0.799585 0.139438 -0.322679 54 50 46 
0.799241 0.137857 -0.322541 45 40 37 
0.798748 0.136252 -0.322342 40 35 31 
0.798227 0.133125 -0.322131 49 44 40 
0.797106 0.131421 -0.321679 45 40 37 
0.80001 0.157783 -0.324374 47 44 34 
0.798836 0.143868 -0.323898 50 47 40 
0.798272 0.140728 -0.323669 49 44 40 
0.796106 0.135801 -0.322791 43 38 35 
0.798193 0.157424 -0.325156 48 45 36 
0.797347 0.15574 -0.324811 49 47 38 
0.796773 0.154111 -0.326094 47 40 32 
0.796432 0.149498 -0.325954 49 43 37 
0.795528 0.144787 -0.325584 49 44 38 
0.795254 0.155331 -0.326986 34 27 21 
0.793896 0.153555 -0.326427 35 25 22 
0.794188 0.149077 -0.326547 52 41 40 
0.794271 0.144558 -0.326581 41 30 30 
